<mxfile host="app.diagrams.net" modified="2024-04-04T03:16:58.144Z" agent="Mozilla/5.0 (Windows NT 10.0; Win64; x64) AppleWebKit/537.36 (KHTML, like Gecko) Chrome/123.0.0.0 Safari/537.36 Edg/123.0.0.0" etag="K5z8Et0zOO2QUGi7IfFh" version="24.2.1" type="device">
  <diagram id="fDeZV2SER9jGIT-zwSTp" name="http处理流程">
    <mxGraphModel dx="3001" dy="1782" grid="0" gridSize="10" guides="1" tooltips="1" connect="1" arrows="1" fold="1" page="0" pageScale="1" pageWidth="4681" pageHeight="3300" math="0" shadow="0">
      <root>
        <mxCell id="0" />
        <mxCell id="1" parent="0" />
        <mxCell id="ytYxkDWUS7seYmi8hpgG-58" value="" style="rounded=1;whiteSpace=wrap;html=1;" parent="1" vertex="1">
          <mxGeometry x="-364" y="-98" width="1759" height="630" as="geometry" />
        </mxCell>
        <mxCell id="ytYxkDWUS7seYmi8hpgG-12" value="" style="rounded=1;whiteSpace=wrap;html=1;" parent="1" vertex="1">
          <mxGeometry x="275" y="-2" width="1018" height="400" as="geometry" />
        </mxCell>
        <mxCell id="ytYxkDWUS7seYmi8hpgG-5" value="" style="endArrow=classic;html=1;rounded=0;strokeWidth=3;" parent="1" edge="1">
          <mxGeometry width="50" height="50" relative="1" as="geometry">
            <mxPoint x="-144" y="208" as="sourcePoint" />
            <mxPoint x="-20" y="208" as="targetPoint" />
          </mxGeometry>
        </mxCell>
        <mxCell id="ytYxkDWUS7seYmi8hpgG-6" value="&lt;b&gt;&lt;font style=&quot;font-size: 14px;&quot;&gt;主线程&lt;/font&gt;&lt;/b&gt;" style="text;html=1;align=center;verticalAlign=middle;resizable=0;points=[];autosize=1;strokeColor=none;fillColor=none;" parent="1" vertex="1">
          <mxGeometry x="-120" y="169" width="60" height="29" as="geometry" />
        </mxCell>
        <mxCell id="ytYxkDWUS7seYmi8hpgG-7" value="&lt;b&gt;&lt;font style=&quot;font-size: 14px;&quot;&gt;监听读事件&lt;/font&gt;&lt;/b&gt;" style="text;html=1;align=center;verticalAlign=middle;resizable=0;points=[];autosize=1;strokeColor=none;fillColor=none;" parent="1" vertex="1">
          <mxGeometry x="-128" y="214" width="88" height="29" as="geometry" />
        </mxCell>
        <mxCell id="ytYxkDWUS7seYmi8hpgG-8" value="&lt;b&gt;&lt;font style=&quot;font-size: 14px;&quot;&gt;read_once 函数&lt;/font&gt;&lt;/b&gt;" style="rounded=1;whiteSpace=wrap;html=1;" parent="1" vertex="1">
          <mxGeometry x="-9" y="189" width="152" height="44" as="geometry" />
        </mxCell>
        <mxCell id="ytYxkDWUS7seYmi8hpgG-9" value="" style="endArrow=classic;html=1;rounded=0;strokeWidth=3;" parent="1" edge="1">
          <mxGeometry width="50" height="50" relative="1" as="geometry">
            <mxPoint x="148" y="213.5" as="sourcePoint" />
            <mxPoint x="272" y="213.5" as="targetPoint" />
          </mxGeometry>
        </mxCell>
        <mxCell id="ytYxkDWUS7seYmi8hpgG-10" value="&lt;b&gt;&lt;font style=&quot;font-size: 14px;&quot;&gt;主线程&lt;/font&gt;&lt;/b&gt;" style="text;html=1;align=center;verticalAlign=middle;resizable=0;points=[];autosize=1;strokeColor=none;fillColor=none;" parent="1" vertex="1">
          <mxGeometry x="172" y="174.5" width="60" height="29" as="geometry" />
        </mxCell>
        <mxCell id="ytYxkDWUS7seYmi8hpgG-11" value="&lt;b&gt;&lt;font style=&quot;font-size: 14px;&quot;&gt;读取请求报文&lt;/font&gt;&lt;/b&gt;" style="text;html=1;align=center;verticalAlign=middle;resizable=0;points=[];autosize=1;strokeColor=none;fillColor=none;" parent="1" vertex="1">
          <mxGeometry x="155" y="218.5" width="102" height="29" as="geometry" />
        </mxCell>
        <mxCell id="ytYxkDWUS7seYmi8hpgG-13" value="&lt;font style=&quot;font-size: 18px;&quot;&gt;&lt;b&gt;服务器子线程&lt;/b&gt;&lt;/font&gt;" style="text;html=1;align=center;verticalAlign=middle;resizable=0;points=[];autosize=1;strokeColor=none;fillColor=none;" parent="1" vertex="1">
          <mxGeometry x="396" y="37" width="126" height="34" as="geometry" />
        </mxCell>
        <mxCell id="ytYxkDWUS7seYmi8hpgG-24" style="edgeStyle=orthogonalEdgeStyle;rounded=0;orthogonalLoop=1;jettySize=auto;html=1;exitX=0.5;exitY=1;exitDx=0;exitDy=0;" parent="1" source="ytYxkDWUS7seYmi8hpgG-12" target="ytYxkDWUS7seYmi8hpgG-12" edge="1">
          <mxGeometry relative="1" as="geometry" />
        </mxCell>
        <mxCell id="ytYxkDWUS7seYmi8hpgG-38" value="" style="group" parent="1" vertex="1" connectable="0">
          <mxGeometry x="864" y="17" width="263" height="315" as="geometry" />
        </mxCell>
        <mxCell id="ytYxkDWUS7seYmi8hpgG-25" value="" style="rounded=1;whiteSpace=wrap;html=1;" parent="ytYxkDWUS7seYmi8hpgG-38" vertex="1">
          <mxGeometry width="263" height="315" as="geometry" />
        </mxCell>
        <mxCell id="ytYxkDWUS7seYmi8hpgG-30" value="&lt;span style=&quot;font-size: 14px;&quot;&gt;&lt;b&gt;状态行&lt;/b&gt;&lt;/span&gt;" style="text;html=1;align=center;verticalAlign=middle;resizable=0;points=[];autosize=1;strokeColor=none;fillColor=none;" parent="ytYxkDWUS7seYmi8hpgG-38" vertex="1">
          <mxGeometry x="11" y="24" width="60" height="29" as="geometry" />
        </mxCell>
        <mxCell id="ytYxkDWUS7seYmi8hpgG-31" value="&lt;span style=&quot;font-size: 14px;&quot;&gt;&lt;b&gt;消息报头&lt;/b&gt;&lt;/span&gt;" style="text;html=1;align=center;verticalAlign=middle;resizable=0;points=[];autosize=1;strokeColor=none;fillColor=none;" parent="ytYxkDWUS7seYmi8hpgG-38" vertex="1">
          <mxGeometry x="4" y="102" width="74" height="29" as="geometry" />
        </mxCell>
        <mxCell id="ytYxkDWUS7seYmi8hpgG-32" value="&lt;span style=&quot;font-size: 14px;&quot;&gt;&lt;b&gt;空行&lt;/b&gt;&lt;/span&gt;" style="text;html=1;align=center;verticalAlign=middle;resizable=0;points=[];autosize=1;strokeColor=none;fillColor=none;" parent="ytYxkDWUS7seYmi8hpgG-38" vertex="1">
          <mxGeometry x="21" y="176" width="46" height="29" as="geometry" />
        </mxCell>
        <mxCell id="ytYxkDWUS7seYmi8hpgG-33" value="&lt;span style=&quot;font-size: 14px;&quot;&gt;&lt;b&gt;响应正文&lt;/b&gt;&lt;/span&gt;" style="text;html=1;align=center;verticalAlign=middle;resizable=0;points=[];autosize=1;strokeColor=none;fillColor=none;" parent="ytYxkDWUS7seYmi8hpgG-38" vertex="1">
          <mxGeometry x="7" y="245.5" width="74" height="29" as="geometry" />
        </mxCell>
        <mxCell id="ytYxkDWUS7seYmi8hpgG-34" value="&lt;font size=&quot;1&quot;&gt;add_states_line 函数&lt;/font&gt;" style="rounded=1;whiteSpace=wrap;html=1;" parent="ytYxkDWUS7seYmi8hpgG-38" vertex="1">
          <mxGeometry x="90.5" y="19" width="162" height="46" as="geometry" />
        </mxCell>
        <mxCell id="ytYxkDWUS7seYmi8hpgG-35" value="&lt;b style=&quot;text-wrap: nowrap;&quot;&gt;&lt;font style=&quot;font-size: 14px;&quot;&gt;add_headers 函数&lt;/font&gt;&lt;/b&gt;" style="rounded=1;whiteSpace=wrap;html=1;" parent="ytYxkDWUS7seYmi8hpgG-38" vertex="1">
          <mxGeometry x="96" y="91" width="162" height="46" as="geometry" />
        </mxCell>
        <mxCell id="ytYxkDWUS7seYmi8hpgG-36" value="&lt;b style=&quot;text-wrap: nowrap;&quot;&gt;&lt;font style=&quot;font-size: 14px;&quot;&gt;add_blank_line 函数&lt;/font&gt;&lt;/b&gt;" style="rounded=1;whiteSpace=wrap;html=1;" parent="ytYxkDWUS7seYmi8hpgG-38" vertex="1">
          <mxGeometry x="96" y="167.5" width="162" height="46" as="geometry" />
        </mxCell>
        <mxCell id="ytYxkDWUS7seYmi8hpgG-37" value="&lt;b style=&quot;text-wrap: nowrap;&quot;&gt;&lt;font style=&quot;font-size: 14px;&quot;&gt;m_file_address&lt;/font&gt;&lt;/b&gt;" style="rounded=1;whiteSpace=wrap;html=1;" parent="ytYxkDWUS7seYmi8hpgG-38" vertex="1">
          <mxGeometry x="96" y="237" width="162" height="46" as="geometry" />
        </mxCell>
        <mxCell id="ytYxkDWUS7seYmi8hpgG-39" value="" style="group" parent="1" vertex="1" connectable="0">
          <mxGeometry x="291" y="95" width="418" height="184" as="geometry" />
        </mxCell>
        <mxCell id="ytYxkDWUS7seYmi8hpgG-15" value="" style="rounded=1;whiteSpace=wrap;html=1;" parent="ytYxkDWUS7seYmi8hpgG-39" vertex="1">
          <mxGeometry width="418" height="184" as="geometry" />
        </mxCell>
        <mxCell id="ytYxkDWUS7seYmi8hpgG-16" value="&lt;font style=&quot;font-size: 14px;&quot;&gt;&lt;b&gt;主状态机&lt;/b&gt;&lt;/font&gt;" style="text;html=1;align=center;verticalAlign=middle;resizable=0;points=[];autosize=1;strokeColor=none;fillColor=none;" parent="ytYxkDWUS7seYmi8hpgG-39" vertex="1">
          <mxGeometry x="39" y="17" width="74" height="29" as="geometry" />
        </mxCell>
        <mxCell id="ytYxkDWUS7seYmi8hpgG-17" value="&lt;b&gt;&lt;font style=&quot;font-size: 14px;&quot;&gt;从状态机&lt;/font&gt;&lt;/b&gt;" style="rounded=1;whiteSpace=wrap;html=1;" parent="ytYxkDWUS7seYmi8hpgG-39" vertex="1">
          <mxGeometry x="27.5" y="46" width="97" height="120.25" as="geometry" />
        </mxCell>
        <mxCell id="ytYxkDWUS7seYmi8hpgG-18" value="&lt;b&gt;&lt;font style=&quot;font-size: 14px;&quot;&gt;do_request 函数&lt;/font&gt;&lt;/b&gt;" style="rounded=1;whiteSpace=wrap;html=1;" parent="ytYxkDWUS7seYmi8hpgG-39" vertex="1">
          <mxGeometry x="243" y="70" width="157" height="54.5" as="geometry" />
        </mxCell>
        <mxCell id="ytYxkDWUS7seYmi8hpgG-19" value="" style="endArrow=classic;html=1;rounded=0;strokeWidth=3;" parent="ytYxkDWUS7seYmi8hpgG-39" edge="1">
          <mxGeometry width="50" height="50" relative="1" as="geometry">
            <mxPoint x="129" y="96.75" as="sourcePoint" />
            <mxPoint x="242" y="96.75" as="targetPoint" />
          </mxGeometry>
        </mxCell>
        <mxCell id="ytYxkDWUS7seYmi8hpgG-20" value="&lt;b&gt;&lt;font style=&quot;font-size: 14px;&quot;&gt;GET_REQUEST&lt;/font&gt;&lt;/b&gt;" style="text;html=1;align=center;verticalAlign=middle;resizable=0;points=[];autosize=1;strokeColor=none;fillColor=none;" parent="ytYxkDWUS7seYmi8hpgG-39" vertex="1">
          <mxGeometry x="127" y="65" width="122" height="29" as="geometry" />
        </mxCell>
        <mxCell id="ytYxkDWUS7seYmi8hpgG-43" value="" style="endArrow=classic;html=1;rounded=0;strokeWidth=3;" parent="ytYxkDWUS7seYmi8hpgG-39" edge="1">
          <mxGeometry width="50" height="50" relative="1" as="geometry">
            <mxPoint x="129" y="152" as="sourcePoint" />
            <mxPoint x="543" y="152" as="targetPoint" />
          </mxGeometry>
        </mxCell>
        <mxCell id="ytYxkDWUS7seYmi8hpgG-44" value="&lt;b&gt;&lt;font style=&quot;font-size: 14px;&quot;&gt;BAD_REQUEST&lt;/font&gt;&lt;/b&gt;&lt;div&gt;&lt;b&gt;&lt;font style=&quot;font-size: 14px;&quot;&gt;INTERNAL_ERROR&lt;/font&gt;&lt;/b&gt;&lt;/div&gt;" style="text;html=1;align=center;verticalAlign=middle;resizable=0;points=[];autosize=1;strokeColor=none;fillColor=none;" parent="ytYxkDWUS7seYmi8hpgG-39" vertex="1">
          <mxGeometry x="121" y="109" width="147" height="46" as="geometry" />
        </mxCell>
        <mxCell id="ytYxkDWUS7seYmi8hpgG-40" value="" style="group" parent="1" vertex="1" connectable="0">
          <mxGeometry x="-326" y="48" width="177" height="332" as="geometry" />
        </mxCell>
        <mxCell id="ytYxkDWUS7seYmi8hpgG-1" value="" style="rounded=1;whiteSpace=wrap;html=1;" parent="ytYxkDWUS7seYmi8hpgG-40" vertex="1">
          <mxGeometry width="177" height="332" as="geometry" />
        </mxCell>
        <mxCell id="ytYxkDWUS7seYmi8hpgG-2" value="&lt;font style=&quot;font-size: 18px;&quot;&gt;&lt;b&gt;浏览器&lt;/b&gt;&lt;/font&gt;" style="text;html=1;align=center;verticalAlign=middle;resizable=0;points=[];autosize=1;strokeColor=none;fillColor=none;" parent="ytYxkDWUS7seYmi8hpgG-40" vertex="1">
          <mxGeometry x="52.5" y="24" width="72" height="34" as="geometry" />
        </mxCell>
        <mxCell id="ytYxkDWUS7seYmi8hpgG-3" value="&lt;b&gt;&lt;font style=&quot;font-size: 14px;&quot;&gt;HTTP请求报文&lt;/font&gt;&lt;/b&gt;" style="rounded=1;whiteSpace=wrap;html=1;" parent="ytYxkDWUS7seYmi8hpgG-40" vertex="1">
          <mxGeometry x="28.5" y="100" width="120" height="60" as="geometry" />
        </mxCell>
        <mxCell id="ytYxkDWUS7seYmi8hpgG-4" value="&lt;b&gt;&lt;font style=&quot;font-size: 14px;&quot;&gt;HTTP响应报文&lt;/font&gt;&lt;/b&gt;" style="rounded=1;whiteSpace=wrap;html=1;" parent="ytYxkDWUS7seYmi8hpgG-40" vertex="1">
          <mxGeometry x="28.5" y="214" width="120" height="60" as="geometry" />
        </mxCell>
        <mxCell id="ytYxkDWUS7seYmi8hpgG-41" value="&lt;b&gt;&lt;font style=&quot;font-size: 14px;&quot;&gt;process_read 函数&lt;/font&gt;&lt;/b&gt;" style="rounded=1;whiteSpace=wrap;html=1;" parent="1" vertex="1">
          <mxGeometry x="380" y="304" width="198" height="45" as="geometry" />
        </mxCell>
        <mxCell id="ytYxkDWUS7seYmi8hpgG-42" value="&lt;b&gt;&lt;font style=&quot;font-size: 14px;&quot;&gt;process_write 函数&lt;/font&gt;&lt;/b&gt;" style="rounded=1;whiteSpace=wrap;html=1;" parent="1" vertex="1">
          <mxGeometry x="904" y="341" width="198" height="45" as="geometry" />
        </mxCell>
        <mxCell id="ytYxkDWUS7seYmi8hpgG-45" value="" style="endArrow=classic;html=1;rounded=0;strokeWidth=3;" parent="1" edge="1">
          <mxGeometry width="50" height="50" relative="1" as="geometry">
            <mxPoint x="694" y="183" as="sourcePoint" />
            <mxPoint x="860" y="183" as="targetPoint" />
          </mxGeometry>
        </mxCell>
        <mxCell id="ytYxkDWUS7seYmi8hpgG-46" value="&lt;div&gt;&lt;b&gt;&lt;font style=&quot;font-size: 14px;&quot;&gt;FORBIDDEN_REQUEST&lt;/font&gt;&lt;/b&gt;&lt;/div&gt;&lt;b&gt;&lt;font style=&quot;font-size: 14px;&quot;&gt;BAD_REQUEST&lt;/font&gt;&lt;/b&gt;&lt;div&gt;&lt;span style=&quot;font-size: 14px;&quot;&gt;&lt;b&gt;NO_RESOURCE&lt;/b&gt;&lt;/span&gt;&lt;/div&gt;&lt;div&gt;&lt;span style=&quot;font-size: 14px;&quot;&gt;&lt;b&gt;FILE_REQUEST&lt;/b&gt;&lt;/span&gt;&lt;/div&gt;" style="text;html=1;align=center;verticalAlign=middle;resizable=0;points=[];autosize=1;strokeColor=none;fillColor=none;" parent="1" vertex="1">
          <mxGeometry x="695.5" y="102" width="177" height="79" as="geometry" />
        </mxCell>
        <mxCell id="ytYxkDWUS7seYmi8hpgG-47" value="" style="endArrow=classic;html=1;rounded=0;strokeWidth=3;" parent="1" edge="1">
          <mxGeometry width="50" height="50" relative="1" as="geometry">
            <mxPoint x="400" y="136" as="sourcePoint" />
            <mxPoint x="-39" y="187" as="targetPoint" />
            <Array as="points">
              <mxPoint x="400" y="-52" />
              <mxPoint x="-39" y="-52" />
            </Array>
          </mxGeometry>
        </mxCell>
        <mxCell id="ytYxkDWUS7seYmi8hpgG-48" value="&lt;font style=&quot;font-size: 14px;&quot;&gt;&lt;b&gt;NO_REQUEST&lt;/b&gt;&lt;/font&gt;" style="text;html=1;align=center;verticalAlign=middle;resizable=0;points=[];autosize=1;strokeColor=none;fillColor=none;" parent="1" vertex="1">
          <mxGeometry x="118" y="-92" width="114" height="29" as="geometry" />
        </mxCell>
        <mxCell id="ytYxkDWUS7seYmi8hpgG-49" value="" style="endArrow=classic;html=1;rounded=0;strokeWidth=3;" parent="1" edge="1">
          <mxGeometry width="50" height="50" relative="1" as="geometry">
            <mxPoint x="1136" y="155.5" as="sourcePoint" />
            <mxPoint x="1224" y="222.5" as="targetPoint" />
            <Array as="points">
              <mxPoint x="1224" y="155.5" />
            </Array>
          </mxGeometry>
        </mxCell>
        <mxCell id="ytYxkDWUS7seYmi8hpgG-51" value="&lt;span style=&quot;font-size: 14px; text-wrap: nowrap;&quot;&gt;&lt;b&gt;响应报文&lt;/b&gt;&lt;/span&gt;&lt;div&gt;&lt;span style=&quot;font-size: 14px; text-wrap: nowrap;&quot;&gt;&lt;b&gt;写入iovec&lt;/b&gt;&lt;/span&gt;&lt;/div&gt;" style="rounded=1;whiteSpace=wrap;html=1;" parent="1" vertex="1">
          <mxGeometry x="1147" y="235" width="126" height="37" as="geometry" />
        </mxCell>
        <mxCell id="ytYxkDWUS7seYmi8hpgG-52" value="" style="endArrow=classic;html=1;rounded=0;strokeWidth=3;" parent="1" edge="1">
          <mxGeometry width="50" height="50" relative="1" as="geometry">
            <mxPoint x="1200" y="289" as="sourcePoint" />
            <mxPoint x="1200" y="460" as="targetPoint" />
          </mxGeometry>
        </mxCell>
        <mxCell id="ytYxkDWUS7seYmi8hpgG-53" value="&lt;b&gt;&lt;font style=&quot;font-size: 14px;&quot;&gt;主线程&lt;/font&gt;&lt;/b&gt;" style="text;html=1;align=center;verticalAlign=middle;resizable=0;points=[];autosize=1;strokeColor=none;fillColor=none;" parent="1" vertex="1">
          <mxGeometry x="1137" y="312" width="60" height="29" as="geometry" />
        </mxCell>
        <mxCell id="ytYxkDWUS7seYmi8hpgG-54" value="&lt;b&gt;&lt;font style=&quot;font-size: 14px;&quot;&gt;监听&lt;/font&gt;&lt;/b&gt;&lt;div&gt;&lt;b&gt;&lt;font style=&quot;font-size: 14px;&quot;&gt;写事件&lt;/font&gt;&lt;/b&gt;&lt;/div&gt;" style="text;html=1;align=center;verticalAlign=middle;resizable=0;points=[];autosize=1;strokeColor=none;fillColor=none;" parent="1" vertex="1">
          <mxGeometry x="1213" y="303" width="60" height="46" as="geometry" />
        </mxCell>
        <mxCell id="ytYxkDWUS7seYmi8hpgG-55" value="&lt;span style=&quot;font-size: 14px; text-wrap: nowrap;&quot;&gt;&lt;b&gt;http_conn::write 函数&lt;/b&gt;&lt;/span&gt;" style="rounded=1;whiteSpace=wrap;html=1;" parent="1" vertex="1">
          <mxGeometry x="1115" y="470" width="168" height="37" as="geometry" />
        </mxCell>
        <mxCell id="ytYxkDWUS7seYmi8hpgG-56" value="" style="endArrow=classic;html=1;rounded=0;strokeWidth=3;" parent="1" edge="1">
          <mxGeometry width="50" height="50" relative="1" as="geometry">
            <mxPoint x="1111" y="489" as="sourcePoint" />
            <mxPoint x="-242" y="385" as="targetPoint" />
            <Array as="points">
              <mxPoint x="-242" y="492" />
            </Array>
          </mxGeometry>
        </mxCell>
        <mxCell id="ytYxkDWUS7seYmi8hpgG-57" value="&lt;b&gt;&lt;font style=&quot;font-size: 14px;&quot;&gt;主线程发送响应报文&lt;/font&gt;&lt;/b&gt;" style="text;html=1;align=center;verticalAlign=middle;resizable=0;points=[];autosize=1;strokeColor=none;fillColor=none;" parent="1" vertex="1">
          <mxGeometry x="315" y="448" width="144" height="29" as="geometry" />
        </mxCell>
      </root>
    </mxGraphModel>
  </diagram>
</mxfile>
